# xmcd
#
# Track frame offsets: 
#        180
#        15367
#        31667
#        48374
#        59761
#        77420
#        96315
#        113638
#        137583
#        156861
#        170464
#
# Disc length: 2595 seconds
#
# Revision: 0
# Processed by: cddbd v1.5.2PL0 Copyright (c) Steve Scherf et al.
# Submitted via: ExactAudioCopy v0.99pb3
#
DISCID=7e0a210b
DTITLE=Odette - Odette
DYEAR=2001
DGENRE=Pharmacy
TTITLE0=Mixi Eyes
TTITLE1=Michelin Bean
TTITLE2=Easier
TTITLE3=Judge Joe
TTITLE4=Come Back Late
TTITLE5=Casuarina
TTITLE6=R and R Infection
TTITLE7=Drafty
TTITLE8=Take A Little Walk - Before It's Too Late
TTITLE9=Lo Radio
TTITLE10=What's Your Horrible Secret
EXTD=
EXTT0=
EXTT1=
EXTT2=
EXTT3=
EXTT4=
EXTT5=
EXTT6=
EXTT7=
EXTT8=
EXTT9=
EXTT10=
PLAYORDER=
